<svg width="17" height="17" viewBox="0 0 17 17" fill="none" xmlns="http://www.w3.org/2000/svg">
<rect width="17" height="17" fill="#B0ADAD"/>
<g id="Home Light">
<path d="M-262 -863C-262 -864.105 -261.105 -865 -260 -865H2898C2899.1 -865 2900 -864.105 2900 -863V4247C2900 4248.1 2899.1 4249 2898 4249H-260C-261.105 4249 -262 4248.1 -262 4247V-863Z" fill="#575151"/>
<g id="Home (Light)" clip-path="url(#clip0_1_2)">
<rect width="1440" height="4914" transform="translate(-162 -765)" fill="#FAFAFA"/>
<g id="Frame 108">
<g id="Frame 93">
<rect width="1440" height="93" transform="translate(-162.5 -38)" fill="#151D24"/>
<g id="octicon:north-star-24" clip-path="url(#clip1_1_2)">
<path id="Vector" d="M8.83398 1.3335C8.83398 1.20089 8.78131 1.07371 8.68754 0.979943C8.59377 0.886174 8.46659 0.833496 8.33398 0.833496C8.20138 0.833496 8.0742 0.886174 7.98043 0.979943C7.88666 1.07371 7.83398 1.20089 7.83398 1.3335V7.12683L4.79865 4.09016C4.75255 4.04239 4.6974 4.00427 4.63641 3.97804C4.57542 3.9518 4.50981 3.93798 4.44342 3.93737C4.37704 3.93676 4.31119 3.94938 4.24973 3.9745C4.18827 3.99961 4.13243 4.03671 4.08546 4.08363C4.03849 4.13056 4.00134 4.18636 3.97617 4.2478C3.951 4.30924 3.93832 4.37507 3.93886 4.44146C3.93941 4.50785 3.95317 4.57346 3.97935 4.63448C4.00552 4.69549 4.04359 4.75068 4.09132 4.79683L7.12732 7.8335H1.33398C1.20138 7.8335 1.0742 7.88618 0.980431 7.97994C0.886663 8.07371 0.833984 8.20089 0.833984 8.3335C0.833984 8.4661 0.886663 8.59328 0.980431 8.68705C1.0742 8.78082 1.20138 8.8335 1.33398 8.8335H7.12732L4.09132 11.8688C4.00019 11.9631 3.94974 12.0894 3.95081 12.2205C3.95189 12.3516 4.00442 12.477 4.09708 12.5697C4.18974 12.6625 4.31512 12.7151 4.44622 12.7163C4.57732 12.7175 4.70364 12.6672 4.79798 12.5762L7.83398 9.54083V15.3335C7.83398 15.4661 7.88666 15.5933 7.98043 15.687C8.0742 15.7808 8.20138 15.8335 8.33398 15.8335C8.46659 15.8335 8.59377 15.7808 8.68754 15.687C8.78131 15.5933 8.83398 15.4661 8.83398 15.3335V9.54016L11.8693 12.5762C11.9636 12.6673 12.0899 12.7177 12.221 12.7167C12.3521 12.7156 12.4775 12.6631 12.5702 12.5704C12.663 12.4777 12.7156 12.3524 12.7168 12.2213C12.718 12.0902 12.6677 11.9638 12.5767 11.8695L9.54132 8.8335H15.334C15.4666 8.8335 15.5938 8.78082 15.6875 8.68705C15.7813 8.59328 15.834 8.4661 15.834 8.3335C15.834 8.20089 15.7813 8.07371 15.6875 7.97994C15.5938 7.88618 15.4666 7.8335 15.334 7.8335H9.54065L12.5767 4.79816C12.6244 4.75206 12.6625 4.69691 12.6888 4.63592C12.715 4.57493 12.7288 4.50933 12.7294 4.44294C12.7301 4.37655 12.7174 4.3107 12.6923 4.24924C12.6672 4.18778 12.6301 4.13194 12.5832 4.08497C12.5363 4.038 12.4805 4.00085 12.419 3.97568C12.3576 3.95051 12.2917 3.93783 12.2254 3.93837C12.159 3.93892 12.0933 3.95268 12.0323 3.97886C11.9713 4.00503 11.9161 4.0431 11.87 4.09083L8.83398 7.12616V1.3335Z" fill="#DF7B00"/>
</g>
</g>
</g>
</g>
<path d="M-260 -864H2898V-866H-260V-864ZM2899 -863V4247H2901V-863H2899ZM2898 4248H-260V4250H2898V4248ZM-261 4247V-863H-263V4247H-261ZM-260 4248C-260.552 4248 -261 4247.55 -261 4247H-263C-263 4248.66 -261.657 4250 -260 4250V4248ZM2899 4247C2899 4247.55 2898.55 4248 2898 4248V4250C2899.66 4250 2901 4248.66 2901 4247H2899ZM2898 -864C2898.55 -864 2899 -863.552 2899 -863H2901C2901 -864.657 2899.66 -866 2898 -866V-864ZM-260 -866C-261.657 -866 -263 -864.657 -263 -863H-261C-261 -863.552 -260.552 -864 -260 -864V-866Z" fill="black" fill-opacity="0.1"/>
</g>
<defs>
<clipPath id="clip0_1_2">
<rect width="1440" height="4914" fill="white" transform="translate(-162 -765)"/>
</clipPath>
<clipPath id="clip1_1_2">
<rect width="16" height="16" fill="white" transform="translate(0.5 0.5)"/>
</clipPath>
</defs>
</svg>
